<svg xmlns="http://www.w3.org/2000/svg">
  <defs>
    <symbol id="email" viewBox="0 0 512 512">
      <path d="M64 112c-8.8 0-16 7.2-16 16v22.1L220.5 291.7c20.7 17 50.4 17 71.1 0L464 150.1V128c0-8.8-7.2-16-16-16H64zM48 212.2V384c0 8.8 7.2 16 16 16H448c8.8 0 16-7.2 16-16V212.2L322 328.8c-38.4 31.5-93.7 31.5-132 0L48 212.2zM0 128C0 92.7 28.7 64 64 64H448c35.3 0 64 28.7 64 64V384c0 35.3-28.7 64-64 64H64c-35.3 0-64-28.7-64-64V128z"/>
    </symbol>
    <symbol id="github" viewBox="0 0 496 512">
      <path d="M165.9 397.4c0 2-2.3 3.6-5.2 3.6-3.3 .3-5.6-1.3-5.6-3.6 0-2 2.3-3.6 5.2-3.6 3-.3 5.6 1.3 5.6 3.6zm-31.1-4.5c-.7 2 1.3 4.3 4.3 4.9 2.6 1 5.6 0 6.2-2s-1.3-4.3-4.3-5.2c-2.6-.7-5.5 .3-6.2 2.3zm44.2-1.7c-2.9 .7-4.9 2.6-4.6 4.9 .3 2 2.9 3.3 5.9 2.6 2.9-.7 4.9-2.6 4.6-4.6-.3-1.9-3-3.2-5.9-2.9zM244.8 8C106.1 8 0 113.3 0 252c0 110.9 69.8 205.8 169.5 239.2 12.8 2.3 17.3-5.6 17.3-12.1 0-6.2-.3-40.4-.3-61.4 0 0-70 15-84.7-29.8 0 0-11.4-29.1-27.8-36.6 0 0-22.9-15.7 1.6-15.4 0 0 24.9 2 38.6 25.8 21.9 38.6 58.6 27.5 72.9 20.9 2.3-16 8.8-27.1 16-33.7-55.9-6.2-112.3-14.3-112.3-110.5 0-27.5 7.6-41.3 23.6-58.9-2.6-6.5-11.1-33.3 2.6-67.9 20.9-6.5 69 27 69 27 20-5.6 41.5-8.5 62.8-8.5s42.8 2.9 62.8 8.5c0 0 48.1-33.6 69-27 13.7 34.7 5.2 61.4 2.6 67.9 16 17.7 25.8 31.5 25.8 58.9 0 96.5-58.9 104.2-114.8 110.5 9.2 7.9 17 22.9 17 46.4 0 33.7-.3 75.4-.3 83.6 0 6.5 4.6 14.4 17.3 12.1C428.2 457.8 496 362.9 496 252 496 113.3 383.5 8 244.8 8zM97.2 352.9c-1.3 1-1 3.3 .7 5.2 1.6 1.6 3.9 2.3 5.2 1 1.3-1 1-3.3-.7-5.2-1.6-1.6-3.9-2.3-5.2-1zm-10.8-8.1c-.7 1.3 .3 2.9 2.3 3.9 1.6 1 3.6 .7 4.3-.7 .7-1.3-.3-2.9-2.3-3.9-2-.6-3.6-.3-4.3 .7zm32.4 35.6c-1.6 1.3-1 4.3 1.3 6.2 2.3 2.3 5.2 2.6 6.5 1 1.3-1.3 .7-4.3-1.3-6.2-2.2-2.3-5.2-2.6-6.5-1zm-11.4-14.7c-1.6 1-1.6 3.6 0 5.9 1.6 2.3 4.3 3.3 5.6 2.3 1.6-1.3 1.6-3.9 0-6.2-1.4-2.3-4-3.3-5.6-2z"/>
    </symbol>
    <symbol id="linkedin" viewBox="0 0 448 512">
      <path d="M416 32H31.9C14.3 32 0 46.5 0 64.3v383.4C0 465.5 14.3 480 31.9 480H416c17.6 0 32-14.5 32-32.3V64.3c0-17.8-14.4-32.3-32-32.3zM135.4 416H69V202.2h66.5V416zm-33.2-243c-21.3 0-38.5-17.3-38.5-38.5S80.9 96 102.2 96c21.2 0 38.5 17.3 38.5 38.5 0 21.3-17.2 38.5-38.5 38.5zm282.1 243h-66.4V312c0-24.8-.5-56.7-34.5-56.7-34.6 0-39.9 27-39.9 54.9V416h-66.4V202.2h63.7v29.2h.9c8.9-16.8 30.6-34.5 62.9-34.5 67.2 0 79.7 44.3 79.7 101.9V416z"/>
    </symbol>
    <!-- <symbol id="mastodon" viewBox="0 0 32 32">
      <path d="M15.938 4.031c-3.021.013-6.02.396-7.58 1.115 0 0-3.358 1.529-3.358 6.735 0 6.197-.005 13.98 5.563 15.484 2.131.573 3.965.697 5.439.612 2.675-.151 3.998-.971 3.998-.971l-.09-1.977s-1.734.611-3.88.541c-2.128-.075-4.369-.234-4.718-2.89a5.64 5.64 0 0 1-.046-.746c4.507 1.119 8.35.487 9.408.359 2.954-.359 5.525-2.211 5.853-3.904.514-2.668.471-6.508.471-6.508 0-5.206-3.352-6.735-3.352-6.735-1.645-.768-4.688-1.127-7.709-1.115zm-3.233 3.971c1.035.028 2.058.49 2.688 1.469l.609 1.035.607-1.035c1.265-1.967 4.1-1.845 5.45-.323 1.244 1.448.966 2.383.966 8.852v.002h-2.447v-5.629c0-2.635-3.36-2.737-3.36.365V16h-2.43v-3.262c0-3.102-3.358-3.002-3.358-.367V18H8.977c0-6.474-.273-7.415.966-8.852.68-.766 1.727-1.174 2.762-1.146z"/>
    </symbol> -->
    <!-- https://icon-sets.iconify.design/mdi/mastodon/ -->
    <symbol id="mastodon" viewBox="0 0 24 24">
	    <path fill="currentColor" d="M20.94 14c-.28 1.41-2.44 2.96-4.97 3.26c-1.31.15-2.6.3-3.97.24c-2.25-.11-4-.54-4-.54v.62c.32 2.22 2.22 2.35 4.03 2.42c1.82.05 3.44-.46 3.44-.46l.08 1.65s-1.28.68-3.55.81c-1.25.07-2.81-.03-4.62-.5c-3.92-1.05-4.6-5.24-4.7-9.5l-.01-3.43c0-4.34 2.83-5.61 2.83-5.61C6.95 2.3 9.41 2 11.97 2h.06c2.56 0 5.02.3 6.47.96c0 0 2.83 1.27 2.83 5.61c0 0 .04 3.21-.39 5.43M18 8.91c0-1.08-.3-1.91-.85-2.56c-.56-.63-1.3-.96-2.23-.96c-1.06 0-1.87.41-2.42 1.23l-.5.88l-.5-.88c-.56-.82-1.36-1.23-2.43-1.23c-.92 0-1.66.33-2.23.96C6.29 7 6 7.83 6 8.91v5.26h2.1V9.06c0-1.06.45-1.62 1.36-1.62c1 0 1.5.65 1.5 1.93v2.79h2.07V9.37c0-1.28.5-1.93 1.51-1.93c.9 0 1.35.56 1.35 1.62v5.11H18z" />
    </symbol>
   <!-- https://icon-sets.iconify.design/fa6-brands/dev/ -->
    <symbol id="dev" viewBox="0 0 448 512">
	<path fill="currentColor" d="M120.12 208.29c-3.88-2.9-7.77-4.35-11.65-4.35H91.03v104.47h17.45c3.88 0 7.77-1.45 11.65-4.35c3.88-2.9 5.82-7.25 5.82-13.06v-69.65c-.01-5.8-1.96-10.16-5.83-13.06M404.1 32H43.9C19.7 32 .06 51.59 0 75.8v360.4C.06 460.41 19.7 480 43.9 480h360.2c24.21 0 43.84-19.59 43.9-43.8V75.8c-.06-24.21-19.7-43.8-43.9-43.8M154.2 291.19c0 18.81-11.61 47.31-48.36 47.25h-46.4V172.98h47.38c35.44 0 47.36 28.46 47.37 47.28zm100.68-88.66H201.6v38.42h32.57v29.57H201.6v38.41h53.29v29.57h-62.18c-11.16.29-20.44-8.53-20.72-19.69V193.7c-.27-11.15 8.56-20.41 19.71-20.69h63.19zm103.64 115.29c-13.2 30.75-36.85 24.63-47.44 0l-38.53-144.8h32.57l29.71 113.72l29.57-113.72h32.58z" />
</symbol>
  </defs>
</svg>