<svg xmlns="http://www.w3.org/2000/svg">
  <defs>
    <!-- https://icon-sets.iconify.design/ic/outline-email/ -->
    <symbol id="email" viewBox="0 0 24 24">
      <path fill="currentColor"
        d="M22 6c0-1.1-.9-2-2-2H4c-1.1 0-2 .9-2 2v12c0 1.1.9 2 2 2h16c1.1 0 2-.9 2-2zm-2 0l-8 5l-8-5zm0 12H4V8l8 5l8-5z" />
    </symbol>
    <!-- https://icon-sets.iconify.design/mdi/github/ -->
    <symbol id="github" viewBox="0 0 24 24">
      <path fill="currentColor"
        d="M12 2A10 10 0 0 0 2 12c0 4.42 2.87 8.17 6.84 9.5c.5.08.66-.23.66-.5v-1.69c-2.77.6-3.36-1.34-3.36-1.34c-.46-1.16-1.11-1.47-1.11-1.47c-.91-.62.07-.6.07-.6c1 .07 1.53 1.03 1.53 1.03c.87 1.52 2.34 1.07 2.91.83c.09-.65.35-1.09.63-1.34c-2.22-.25-4.55-1.11-4.55-4.92c0-1.11.38-2 1.03-2.71c-.1-.25-.45-1.29.1-2.64c0 0 .84-.27 2.75 1.02c.79-.22 1.65-.33 2.5-.33s1.71.11 2.5.33c1.91-1.29 2.75-1.02 2.75-1.02c.55 1.35.2 2.39.1 2.64c.65.71 1.03 1.6 1.03 2.71c0 3.82-2.34 4.66-4.57 4.91c.36.31.69.92.69 1.85V21c0 .27.16.59.67.5C19.14 20.16 22 16.42 22 12A10 10 0 0 0 12 2" />
    </symbol>
    <symbol id="linkedin" viewBox="0 0 24 24">
      <path fill="currentColor"
        d="M19 3a2 2 0 0 1 2 2v14a2 2 0 0 1-2 2H5a2 2 0 0 1-2-2V5a2 2 0 0 1 2-2zm-.5 15.5v-5.3a3.26 3.26 0 0 0-3.26-3.26c-.85 0-1.84.52-2.32 1.3v-1.11h-2.79v8.37h2.79v-4.93c0-.77.62-1.4 1.39-1.4a1.4 1.4 0 0 1 1.4 1.4v4.93zM6.88 8.56a1.68 1.68 0 0 0 1.68-1.68c0-.93-.75-1.69-1.68-1.69a1.69 1.69 0 0 0-1.69 1.69c0 .93.76 1.68 1.69 1.68m1.39 9.94v-8.37H5.5v8.37z" />
    </symbol>
    <!-- https://icon-sets.iconify.design/mdi/mastodon/ -->
    <symbol id="mastodon" viewBox="0 0 24 24">
      <path fill="currentColor"
        d="M20.94 14c-.28 1.41-2.44 2.96-4.97 3.26c-1.31.15-2.6.3-3.97.24c-2.25-.11-4-.54-4-.54v.62c.32 2.22 2.22 2.35 4.03 2.42c1.82.05 3.44-.46 3.44-.46l.08 1.65s-1.28.68-3.55.81c-1.25.07-2.81-.03-4.62-.5c-3.92-1.05-4.6-5.24-4.7-9.5l-.01-3.43c0-4.34 2.83-5.61 2.83-5.61C6.95 2.3 9.41 2 11.97 2h.06c2.56 0 5.02.3 6.47.96c0 0 2.83 1.27 2.83 5.61c0 0 .04 3.21-.39 5.43M18 8.91c0-1.08-.3-1.91-.85-2.56c-.56-.63-1.3-.96-2.23-.96c-1.06 0-1.87.41-2.42 1.23l-.5.88l-.5-.88c-.56-.82-1.36-1.23-2.43-1.23c-.92 0-1.66.33-2.23.96C6.29 7 6 7.83 6 8.91v5.26h2.1V9.06c0-1.06.45-1.62 1.36-1.62c1 0 1.5.65 1.5 1.93v2.79h2.07V9.37c0-1.28.5-1.93 1.51-1.93c.9 0 1.35.56 1.35 1.62v5.11H18z" />
    </symbol>
    <!-- https://icon-sets.iconify.design/fa6-brands/dev/ -->
    <symbol id="dev" viewBox="0 0 448 512">
      <path fill="currentColor"
        d="M120.12 208.29c-3.88-2.9-7.77-4.35-11.65-4.35H91.03v104.47h17.45c3.88 0 7.77-1.45 11.65-4.35c3.88-2.9 5.82-7.25 5.82-13.06v-69.65c-.01-5.8-1.96-10.16-5.83-13.06M404.1 32H43.9C19.7 32 .06 51.59 0 75.8v360.4C.06 460.41 19.7 480 43.9 480h360.2c24.21 0 43.84-19.59 43.9-43.8V75.8c-.06-24.21-19.7-43.8-43.9-43.8M154.2 291.19c0 18.81-11.61 47.31-48.36 47.25h-46.4V172.98h47.38c35.44 0 47.36 28.46 47.37 47.28zm100.68-88.66H201.6v38.42h32.57v29.57H201.6v38.41h53.29v29.57h-62.18c-11.16.29-20.44-8.53-20.72-19.69V193.7c-.27-11.15 8.56-20.41 19.71-20.69h63.19zm103.64 115.29c-13.2 30.75-36.85 24.63-47.44 0l-38.53-144.8h32.57l29.71 113.72l29.57-113.72h32.58z" />
    </symbol>
  </defs>
</svg>