<?xml version="1.0" standalone="no"?>
<!DOCTYPE svg PUBLIC "-//W3C//DTD SVG 20010904//EN"
 "http://www.w3.org/TR/2001/REC-SVG-20010904/DTD/svg10.dtd">
<svg version="1.0" xmlns="http://www.w3.org/2000/svg"
 width="224.000000pt" height="224.000000pt" viewBox="0 0 224.000000 224.000000"
 preserveAspectRatio="xMidYMid meet">
<metadata>
Created by potrace 1.11, written by Peter Selinger 2001-2013
</metadata>
<g transform="translate(0.000000,224.000000) scale(0.100000,-0.100000)"
fill="#000000" stroke="none">
<path d="M768 1353 c-3 -310 -4 -330 -24 -363 -36 -63 -133 -76 -226 -31 -24
11 -48 21 -52 21 -4 0 -6 -28 -4 -62 3 -62 3 -63 43 -82 26 -13 68 -21 122
-24 69 -4 88 -1 127 18 25 12 61 40 80 61 57 67 61 97 61 459 l0 325 -62 3
-62 3 -3 -328z"/>
<path d="M1107 1673 c-4 -3 -7 -197 -7 -430 l0 -423 64 0 64 0 4 140 3 140 63
62 c40 40 65 59 70 52 4 -7 72 -98 152 -203 l145 -191 78 0 c60 0 76 3 71 13
-5 6 -88 117 -187 245 l-179 232 110 118 c61 64 138 144 171 177 34 33 61 63
61 67 0 4 -35 8 -78 8 l-79 0 -100 -102 c-54 -57 -142 -148 -194 -203 -52 -55
-97 -101 -101 -103 -5 -2 -8 89 -8 202 l0 206 -58 0 c-32 0 -62 -3 -65 -7z"/>
</g>
</svg>
